<svg width="22" height="22" viewBox="0 0 22 22" fill="none" xmlns="http://www.w3.org/2000/svg">
<rect width="22" height="22" fill="#E3E3E3"/>
<g id="&#208;&#154;&#208;&#190;&#209;&#128;&#208;&#183;&#208;&#184;&#208;&#189;&#208;&#176;-003">
<rect width="1024" height="1965" transform="translate(-24 -186)" fill="#F6F6FA"/>
<g id="Frame 277132152">
<g id="Frame 277132152_2">
<g id="Frame 277132230">
<g id="&#208;&#146; &#208;&#189;&#208;&#176;&#208;&#187;&#208;&#184;&#209;&#135;&#208;&#184;&#208;&#184;">
<g id="&#208;&#146;&#209;&#139;&#208;&#177;&#209;&#128;&#208;&#176;&#209;&#130;&#209;&#140; &#208;&#178;&#209;&#129;&#208;&#181;">
<g id="checkbox" clip-path="url(#clip0_7_43)">
<path id="Rectangle 2701 (Stroke)" d="M0.5 9.6C0.5 7.91159 0.500389 6.67536 0.580085 5.69993C0.659303 4.73034 0.814384 4.06255 1.09946 3.50305C1.62677 2.46816 2.46816 1.62677 3.50305 1.09946C4.06255 0.814384 4.73034 0.659303 5.69993 0.580085C6.67536 0.500389 7.91159 0.5 9.6 0.5H12.4C14.0884 0.5 15.3246 0.500389 16.3001 0.580085C17.2697 0.659303 17.9374 0.814384 18.4969 1.09946C19.5318 1.62677 20.3732 2.46816 20.9005 3.50305C21.1856 4.06255 21.3407 4.73034 21.4199 5.69993C21.4996 6.67536 21.5 7.91159 21.5 9.6V12.4C21.5 14.0884 21.4996 15.3246 21.4199 16.3001C21.3407 17.2697 21.1856 17.9374 20.9005 18.4969C20.3732 19.5318 19.5318 20.3732 18.4969 20.9005C17.9374 21.1856 17.2697 21.3407 16.3001 21.4199C15.3246 21.4996 14.0884 21.5 12.4 21.5H9.6C7.91159 21.5 6.67536 21.4996 5.69993 21.4199C4.73034 21.3407 4.06255 21.1856 3.50305 20.9005C2.46816 20.3732 1.62677 19.5318 1.09946 18.4969C0.814384 17.9374 0.659303 17.2697 0.580085 16.3001C0.500389 15.3246 0.5 14.0884 0.5 12.4V9.6Z" stroke="black" stroke-opacity="0.2"/>
</g>
</g>
</g>
</g>
</g>
</g>
</g>
<defs>
<clipPath id="clip0_7_43">
<rect width="22" height="22" fill="white"/>
</clipPath>
</defs>
</svg>
