<svg display="none" xmlns="http://www.w3.org/2000/svg"> 

    <!--header search submit-->
    <symbol id="header-search-submit" viewBox="0 0 24 24"> 
        <g>
            <path fill-rule="evenodd" clip-rule="evenodd" d="M9.93382 3.70286C6.44752 3.70286 3.62132 6.52907 3.62132 10.0154C3.62132 13.5017 6.44752 16.3279 9.93382 16.3279C13.4201 16.3279 16.2463 13.5017 16.2463 10.0154C16.2463 6.52907 13.4201 3.70286 9.93382 3.70286ZM1.93799 10.0154C1.93799 5.59939 5.51784 2.01953 9.93382 2.01953C14.3498 2.01953 17.9296 5.59939 17.9296 10.0154C17.9296 14.4313 14.3498 18.0112 9.93382 18.0112C5.51784 18.0112 1.93799 14.4313 1.93799 10.0154Z" fill="white"/>
            <path fill-rule="evenodd" clip-rule="evenodd" d="M13.9602 14.8988C14.2846 14.5659 14.8175 14.559 15.1504 14.8834L21.1959 20.7751C21.5288 21.0995 21.5357 21.6324 21.2112 21.9653C20.8868 22.2982 20.3539 22.3051 20.021 21.9806L13.9756 16.089C13.6427 15.7645 13.6358 15.2317 13.9602 14.8988Z" fill="white"/>
        </g>
    </symbol>

    <!--header profile-->
    <symbol id="header-profile" viewBox="0 0 28 29"> 
        <g>
            <path fill-rule="evenodd" clip-rule="evenodd" d="M18.5207 9.28873C18.5207 12.0587 16.4361 14.2066 14.006 14.2066C11.5759 14.2066 9.49117 12.0587 9.49117 9.31221C9.47931 6.60094 11.5878 4.5 14.006 4.5C16.4241 4.5 18.5207 6.55399 18.5207 9.28873ZM4.5 22.9977C4.5 23.9836 5.14326 24.5 6.94201 24.5H21.058C22.8567 24.5 23.5 23.9836 23.5 22.9977C23.5 20.1338 19.8429 16.1901 14.006 16.1901C8.15705 16.1901 4.5 20.1338 4.5 22.9977Z" fill="white"/>
        </g>
    </symbol>
    
    <!--header cart-->
    <symbol id="header-cart" viewBox="0 0 28 29"> 
        <g>
            <path fill-rule="evenodd" clip-rule="evenodd" d="M11.2214 17.4665C11.3829 17.9206 11.8452 18.1949 12.3212 18.119L25.0874 16.0828C25.5004 16.017 25.8288 15.701 25.9106 15.2909L27.2654 8.49865C27.3875 7.88644 26.925 7.31324 26.3008 7.30317L8.94122 7.02324C8.24354 7.01199 7.74913 7.70067 7.98289 8.35812L11.2214 17.4665Z" fill="white"/>
            <path fill-rule="evenodd" clip-rule="evenodd" d="M11.8262 25.3593C13.1109 25.3593 14.1523 24.3178 14.1523 23.0331C14.1523 21.7484 13.1109 20.707 11.8262 20.707C10.5415 20.707 9.5 21.7484 9.5 23.0331C9.5 24.3178 10.5415 25.3593 11.8262 25.3593Z" fill="white"/>
            <path fill-rule="evenodd" clip-rule="evenodd" d="M23.457 25.3593C24.7417 25.3593 25.7831 24.3178 25.7831 23.0331C25.7831 21.7484 24.7417 20.707 23.457 20.707C22.1723 20.707 21.1308 21.7484 21.1308 23.0331C21.1308 24.3178 22.1723 25.3593 23.457 25.3593Z" fill="white"/>
            <path fill-rule="evenodd" clip-rule="evenodd" d="M5 4C6.933 4 8.5 3.77614 8.5 3.5C8.5 3.22386 6.933 3 5 3C3.067 3 1.5 3.22386 1.5 3.5C1.5 3.77614 3.067 4 5 4Z" fill="white"/>
            <path fill-rule="evenodd" clip-rule="evenodd" d="M2.45442 2.65147C3.1177 2.55672 4.01745 2.5 5 2.5C5.98255 2.5 6.8823 2.55672 7.54558 2.65147C7.87345 2.69831 8.16489 2.75734 8.38495 2.83167C8.4917 2.86772 8.61185 2.91717 8.71511 2.98926C8.80017 3.04864 9 3.21275 9 3.5C9 3.78725 8.80017 3.95136 8.71511 4.01074C8.61185 4.08283 8.4917 4.13228 8.38495 4.16833C8.16489 4.24266 7.87345 4.30169 7.54558 4.34853C6.8823 4.44328 5.98255 4.5 5 4.5C4.01745 4.5 3.1177 4.44328 2.45442 4.34853C2.12655 4.30169 1.83511 4.24266 1.61505 4.16833C1.5083 4.13228 1.38815 4.08283 1.28489 4.01074C1.19983 3.95136 1 3.78725 1 3.5C1 3.21275 1.19983 3.04864 1.28489 2.98926C1.38815 2.91717 1.5083 2.86772 1.61505 2.83167C1.83511 2.75734 2.12655 2.69831 2.45442 2.65147Z" fill="white"/>
        </g>
    </symbol>

    <!--cart content spoiler-->
    <symbol id="cart-content-spoiler" viewBox="0 0 20 20"> 
        <g>
           <path d="M17.3417 14.9121C16.966 15.2982 16.3477 15.3044 15.9644 14.9258L10.1418 9.17475C10.0634 9.0973 9.93715 9.09788 9.85945 9.17603L4.15281 14.9159C3.76725 15.3037 3.14293 15.3137 2.74516 14.9384V14.9384C2.33549 14.552 2.32163 13.9049 2.71437 13.5012L9.28326 6.74949C9.67588 6.34593 10.3241 6.34593 10.7167 6.74949L17.3417 13.5588C17.7082 13.9355 17.7082 14.5354 17.3417 14.9121V14.9121Z" fill="#9797AF"/>
        </g>
    </symbol>

    <!--checkbox-->
    <symbol id="cart-checkbox" viewBox="0 0 22 22"> 
        <g>
            <path id="Rectangle 2701 (Stroke)" fill-rule="evenodd" clip-rule="evenodd" d="M0.653961 3.27606C0 4.55953 0 6.23969 0 9.6V12.4C0 15.7603 0 17.4405 0.653961 18.7239C1.2292 19.8529 2.14708 20.7708 3.27606 21.346C4.55953 22 6.23969 22 9.6 22H12.4C15.7603 22 17.4405 22 18.7239 21.346C19.8529 20.7708 20.7708 19.8529 21.346 18.7239C22 17.4405 22 15.7603 22 12.4V9.6C22 6.23969 22 4.55953 21.346 3.27606C20.7708 2.14708 19.8529 1.2292 18.7239 0.653961C17.4405 0 15.7603 0 12.4 0H9.6C6.23969 0 4.55953 0 3.27606 0.653961C2.14708 1.2292 1.2292 2.14708 0.653961 3.27606Z" fill="#CB11AB"/>
            <path id="Path Copy 2 (Stroke)" fill-rule="evenodd" clip-rule="evenodd" d="M17.7354 6.67929L9.58662 15.4839L5.25781 10.6682L6.74523 9.33115L9.60819 12.5162L16.2676 5.3208L17.7354 6.67929Z" fill="white"/> 
        </g>
    </symbol>

    <!--favorites-icon-->
    <symbol id="favorites-icon" viewBox="0 0 20 20"> 
        <g>
           <path fill-rule="evenodd" clip-rule="evenodd" d="M3.03399 4.05857C2.26592 4.75224 1.76687 5.83284 1.99496 7.42928C2.22335 9.02783 3.26497 10.6852 4.80439 12.3478C6.25868 13.9184 8.10965 15.4437 9.99999 16.874C11.8903 15.4437 13.7413 13.9184 15.1956 12.3478C16.7351 10.6852 17.7767 9.02783 18.005 7.4293C18.2331 5.83285 17.734 4.75224 16.9659 4.05856C16.1767 3.34572 15.055 3 14 3C12.132 3 11.0924 4.08479 10.5177 4.68443C10.4581 4.7466 10.4035 4.80356 10.3535 4.85355C10.1583 5.04882 9.84169 5.04882 9.64643 4.85355C9.59644 4.80356 9.54185 4.7466 9.48227 4.68443C8.9076 4.08479 7.868 3 5.99999 3C4.94498 3 3.82328 3.34573 3.03399 4.05857ZM2.36374 3.31643C3.37372 2.40427 4.75205 2 5.99999 2C8.07126 2 9.34542 3.11257 9.99999 3.77862C10.6545 3.11257 11.9287 2 14 2C15.2479 2 16.6262 2.40428 17.6362 3.31644C18.6674 4.24776 19.2669 5.66715 18.995 7.5707C18.7233 9.47217 17.515 11.3148 15.9294 13.0272C14.3355 14.7486 12.3064 16.3952 10.3 17.9C10.1222 18.0333 9.87776 18.0333 9.69999 17.9C7.69356 16.3952 5.66446 14.7485 4.07063 13.0272C2.48506 11.3148 1.27668 9.47217 1.00501 7.57072C0.733043 5.66716 1.33253 4.24776 2.36374 3.31643Z"/>
        </g>
    </symbol>

    
    <!--trash-icon-->
    <symbol id="trash-icon" viewBox="0 0 20 20"> 
        <g>
            <path fill-rule="evenodd" clip-rule="evenodd" d="M2.5 5C2.5 4.72386 2.72386 4.5 3 4.5H17C17.2761 4.5 17.5 4.72386 17.5 5C17.5 5.27614 17.2761 5.5 17 5.5H3C2.72386 5.5 2.5 5.27614 2.5 5Z" />
            <path fill-rule="evenodd" clip-rule="evenodd" d="M3.4584 4.5H16.5059L15.6411 15.6926C15.5405 16.9947 14.4546 18 13.1486 18H6.84639C5.54299 18 4.45829 16.9986 4.35435 15.6994L3.4584 4.5ZM4.5416 5.5L5.35117 15.6196C5.41353 16.3992 6.06435 17 6.84639 17H13.1486C13.9322 17 14.5837 16.3968 14.6441 15.6155L15.4256 5.5H4.5416Z" />
            <path fill-rule="evenodd" clip-rule="evenodd" d="M13 5.5H7V3.46875C7 2.65758 7.65758 2 8.46875 2H11.5312C12.3424 2 13 2.65758 13 3.46875V5.5ZM8.46875 3C8.20987 3 8 3.20987 8 3.46875V4.5H12V3.46875C12 3.20987 11.7901 3 11.5312 3H8.46875Z" />
        </g>
    </symbol>

    <!--saler-icon-->
    <symbol id="saler-icon" viewBox="0 0 20 20"> 
        <g>
            <circle cx="10" cy="10" r="7.5" stroke="#9797AF"/>
            <path d="M9.88867 7.58691C9.62826 7.58691 9.41504 7.51042 9.24902 7.35742C9.08301 7.20117 9 7.01074 9 6.78613C9 6.55501 9.08301 6.36621 9.24902 6.21973C9.41504 6.07324 9.62826 6 9.88867 6C10.1523 6 10.3656 6.07324 10.5283 6.21973C10.6943 6.36621 10.7773 6.55501 10.7773 6.78613C10.7773 7.02051 10.6943 7.21257 10.5283 7.3623C10.3656 7.51204 10.1523 7.58691 9.88867 7.58691ZM10.6504 13.3779H9.10742V8.37793H10.6504V13.3779Z" fill="#9797AF"/>
        </g>
    </symbol>

    <!--asidebar delivery redact-->
    <symbol id="delivery-redact-icon" viewBox="0 0 20 20"> 
        <g>
            <path fill-rule="evenodd" clip-rule="evenodd" d="M13.1585 3.05991L16.9401 6.84154L6.72705 17.0546L2.73544 17.8529C2.38557 17.9229 2.07711 17.6144 2.14709 17.2646L2.94541 13.273L13.1585 3.05991ZM4.17707 13.9321L13.1585 4.95072L15.0493 6.84154L6.06789 15.8229L3.70436 16.2956L4.17707 13.9321Z" fill="#CB11AB"/>
            <path fill-rule="evenodd" clip-rule="evenodd" d="M15.9948 7.78715L12.2132 4.00552L13.6313 2.5874C14.4145 1.8042 15.6843 1.8042 16.4675 2.5874L17.4129 3.53281C18.1961 4.31601 18.1961 5.58584 17.4129 6.36904L15.9948 7.78715ZM16.4675 5.42363C16.7286 5.16256 16.7286 4.73929 16.4675 4.47822L15.5221 3.53281C15.261 3.27174 14.8378 3.27174 14.5767 3.53281L14.104 4.00552L15.9948 5.89634L16.4675 5.42363Z" fill="#CB11AB"/>
        </g>
    </symbol>

    <!--dotted text-->
    <symbol id="dotted" viewBox="0 0 49 2"> 
        <g>
            <path id="Vector 667" d="M1 1H48" stroke="#CB11AB" stroke-opacity="0.2" stroke-linecap="square" stroke-dasharray="4 2"/>
        </g>
    </symbol>

    <!--dotted-delivery-->
    <symbol id="dotted-delivery" viewBox="0 0 64 2"> 
        <g>
            <path d="M1 0.970703H63" stroke="#0CB477" stroke-opacity="0.2" stroke-linecap="square" stroke-dasharray="4 2"/>
        </g>
    </symbol>

    <!--accept confidicial-->
    <symbol id="accept-confidicial" viewBox="0 0 13 24"> 
        <g>
            <path fill-rule="evenodd" clip-rule="evenodd" d="M12.7657 4.68031L4.59586 13.4814L0.257324 8.66919L1.74276 7.32998L4.6174 10.5185L11.2999 3.31964L12.7657 4.68031Z" fill="black"/>
        </g>
    </symbol>

    <!--modal-close-icon-->
    <symbol id="close-icon" viewBox="0 0 24 25"> 
        <g>
           <path fill-rule="evenodd" clip-rule="evenodd" d="M4.92961 18.1568C4.53909 18.5473 4.53909 19.1805 4.92961 19.571C5.32014 19.9615 5.9533 19.9615 6.34383 19.571L12.0008 13.914L17.658 19.5711C18.0485 19.9616 18.6817 19.9616 19.0722 19.5711C19.4627 19.1806 19.4627 18.5474 19.0722 18.1569L13.4151 12.4998L19.0717 6.84309C19.4623 6.45257 19.4623 5.8194 19.0717 5.42888C18.6812 5.03835 18.0481 5.03836 17.6575 5.42888L12.0008 11.0856L6.34427 5.42899C5.95374 5.03846 5.32058 5.03846 4.93005 5.42899C4.53953 5.81951 4.53953 6.45267 4.93005 6.8432L10.5866 12.4998L4.92961 18.1568Z" fill="#9797AF"/>
        </g>
    </symbol>

    <symbol id="mir-icon" viewBox="0 0 32 25"> 
        <g>
            
        </g>
    </symbol>

    <!--payment visa-->
    <symbol id="visa-icon" viewBox="0 0 32 25"> 
        <g>
            <rect y="0.5" width="32" height="24" rx="4" fill="#F6F6FA"/>
            <path fill-rule="evenodd" clip-rule="evenodd" d="M16.4709 10.6782C16.453 12.0858 17.7254 12.8713 18.6838 13.3384C19.6686 13.8176 19.9994 14.1249 19.9956 14.5534C19.9881 15.2093 19.21 15.4987 18.4818 15.51C17.2113 15.5297 16.4727 15.167 15.8855 14.8926L15.4279 17.0341C16.017 17.3057 17.108 17.5425 18.2394 17.5528C20.8949 17.5528 22.6323 16.242 22.6418 14.2095C22.6521 11.6301 19.0738 11.4873 19.0982 10.3343C19.1067 9.98472 19.4403 9.61163 20.1713 9.51674C20.5331 9.46886 21.532 9.43217 22.6643 9.95366L23.1087 7.88176C22.4998 7.65997 21.7171 7.44757 20.7427 7.44757C18.2431 7.44757 16.485 8.77627 16.4709 10.6782ZM27.3796 7.6261C26.8947 7.6261 26.4859 7.90899 26.3037 8.3431L22.5102 17.4006H25.1638L25.6919 15.9412H28.9347L29.241 17.4006H31.5799L29.5389 7.6261H27.3796ZM27.7507 10.2666L28.5165 13.9369H26.4192L27.7507 10.2666ZM13.2535 7.6261L11.1618 17.4006H13.6904L15.7812 7.6261H13.2535ZM9.51266 7.6261L6.88061 14.279L5.81595 8.62215C5.69101 7.99074 5.19768 7.6261 4.64982 7.6261H0.347122L0.286962 7.90992C1.17028 8.10159 2.17385 8.41077 2.78179 8.74153C3.15386 8.94353 3.2601 9.12018 3.38222 9.60037L5.39874 17.4006H8.07123L12.1682 7.6261H9.51266Z" fill="#1434CB"/>
        </g>
    </symbol>

    <!--payment mastercard-->
    <symbol id="mastercard-icon" viewBox="0 0 32 25"> 
        <g>
            <rect y="0.5" width="32" height="24" rx="4" fill="#F6F6FA"/>
            <path fill-rule="evenodd" clip-rule="evenodd" d="M26.9337 16.8367V16.5649H26.8629L26.781 16.7514L26.6996 16.5649H26.6286V16.8367H26.6788V16.632L26.7554 16.8086H26.8075L26.884 16.6315V16.8367H26.9339H26.9337ZM26.4846 16.8367V16.6115H26.5752V16.5656H26.3438V16.6115H26.4343V16.8367H26.4846Z" fill="#F79410"/>
            <path fill-rule="evenodd" clip-rule="evenodd" d="M18.8883 18.0014H12.7637V6.99463H18.8884L18.8883 18.0014Z" fill="#FF5F00"/>
            <path fill-rule="evenodd" clip-rule="evenodd" d="M13.1515 12.4999C13.1515 10.2671 14.1969 8.27821 15.8248 6.99643C14.5928 6.02498 13.0681 5.49741 11.4992 5.49976C7.63356 5.49976 4.5 8.63376 4.5 12.4999C4.5 16.3659 7.63356 19.4999 11.4992 19.4999C13.0681 19.5023 14.5929 18.9747 15.8249 18.0032C14.1971 16.7217 13.1515 14.7327 13.1515 12.4999Z" fill="#EB001B"/>
            <path fill-rule="evenodd" clip-rule="evenodd" d="M27.1497 12.4999C27.1497 16.3659 24.0161 19.4999 20.1505 19.4999C18.5814 19.5022 17.0565 18.9747 15.8242 18.0032C17.4526 16.7215 18.498 14.7327 18.498 12.4999C18.498 10.267 17.4526 8.27821 15.8242 6.99643C17.0564 6.02498 18.5813 5.49749 20.1504 5.49976C24.016 5.49976 27.1496 8.63376 27.1496 12.4999" fill="#F79410"/>
        </g>
    </symbol>

    <!--payment mastercard 2-->
    <symbol id="mastercard-second-icon" viewBox="0 0 32 25"> 
        <g>
            <rect y="0.5" width="32" height="24" rx="4" fill="#F6F6FA"/>
            <path fill-rule="evenodd" clip-rule="evenodd" d="M18.8883 18.0017H12.7637V6.99487H18.8884L18.8883 18.0017Z" fill="#6C6BBD"/>
            <path fill-rule="evenodd" clip-rule="evenodd" d="M13.1515 12.5001C13.1515 10.2674 14.1969 8.27845 15.8248 6.99668C14.5928 6.02523 13.0681 5.49766 11.4992 5.50001C7.63356 5.50001 4.5 8.63401 4.5 12.5001C4.5 16.3662 7.63356 19.5002 11.4992 19.5002C13.0681 19.5025 14.5929 18.9749 15.8249 18.0035C14.1971 16.7219 13.1515 14.7329 13.1515 12.5001Z" fill="#EB001B"/>
            <path fill-rule="evenodd" clip-rule="evenodd" d="M27.1497 12.5001C27.1497 16.3662 24.0161 19.5002 20.1505 19.5002C18.5814 19.5024 17.0565 18.9749 15.8242 18.0035C17.4526 16.7217 18.498 14.7329 18.498 12.5001C18.498 10.2672 17.4526 8.27845 15.8242 6.99668C17.0564 6.02523 18.5813 5.49773 20.1504 5.50001C24.016 5.50001 27.1496 8.63401 27.1496 12.5001" fill="#0099DF"/>
        </g>
    </symbol>

    <!--star-icon-->
    <symbol id="star-icon" viewBox="0 0 12 12"> 
        <g>
            <path fill-rule="evenodd" clip-rule="evenodd" d="M6.69769 1.14922C6.43817 0.528396 5.56198 0.528387 5.30244 1.14919L6.69769 1.14922ZM5.30244 1.14919L4.14719 3.90977L1.19202 4.16613C0.519264 4.22467 0.262282 5.05966 0.759713 5.49464L3.00514 7.45915L2.33207 10.3824C2.18436 11.0238 2.87792 11.5567 3.46133 11.2023L6.00032 9.65611L8.53797 11.2015C9.12269 11.5588 9.81568 11.0227 9.66861 10.3826L8.99549 7.45915L11.2402 5.49537C11.7385 5.05961 11.4793 4.22519 10.8083 4.16667L7.85294 3.91029L6.69769 1.14922" fill="#FF970D"/>
        </g>
    </symbol>

    <!--burger desktop-->
    <symbol id="burger-desktop" viewBox="0 0 28 24"> 
        <g>
            <path d="M0 2C0 0.895431 0.895431 0 2 0H26C27.1046 0 28 0.895431 28 2C28 3.10457 27.1046 4 26 4H2C0.895431 4 0 3.10457 0 2Z" fill="white"/>
            <path d="M0 12C0 10.8954 0.895431 10 2 10H26C27.1046 10 28 10.8954 28 12C28 13.1046 27.1046 14 26 14H2C0.895431 14 0 13.1046 0 12Z" fill="white"/>
            <path d="M0 22C0 20.8954 0.895431 20 2 20H26C27.1046 20 28 20.8954 28 22C28 23.1046 27.1046 24 26 24H2C0.895431 24 0 23.1046 0 22Z" fill="white"/>
        </g>
    </symbol>

    <!--burger-mobile-->
    <symbol id="burger-mobile" viewBox="0 0 28 28"> 
        <g>
            <path fill-rule="evenodd" clip-rule="evenodd" d="M2.75 6C2.75 5.30964 3.30964 4.75 4 4.75H24C24.6904 4.75 25.25 5.30964 25.25 6C25.25 6.69036 24.6904 7.25 24 7.25H4C3.30964 7.25 2.75 6.69036 2.75 6Z" fill="white"/>
            <path fill-rule="evenodd" clip-rule="evenodd" d="M2.75 14C2.75 13.3096 3.30964 12.75 4 12.75H24C24.6904 12.75 25.25 13.3096 25.25 14C25.25 14.6904 24.6904 15.25 24 15.25H4C3.30964 15.25 2.75 14.6904 2.75 14Z" fill="white"/>
            <path fill-rule="evenodd" clip-rule="evenodd" d="M2.75 22C2.75 21.3096 3.30964 20.75 4 20.75H18C18.6904 20.75 19.25 21.3096 19.25 22C19.25 22.6904 18.6904 23.25 18 23.25H4C3.30964 23.25 2.75 22.6904 2.75 22Z" fill="white"/>
        </g>
    </symbol>

    <!--mobile-home"-->
    <symbol id="mobile-home" viewBox="0 0 28 28"> 
        <g>
           <path fill-rule="evenodd" clip-rule="evenodd" d="M3.39249 13.7635C2.43526 14.7047 3.10172 16.333 4.44418 16.333H4.99997V22.3332C4.99997 23.4378 5.89541 24.3332 6.99997 24.3332H11.25C11.5261 24.3332 11.75 24.1093 11.75 23.8332V20.7433C11.75 19.6387 12.6454 18.7433 13.75 18.7433H14.25C15.3545 18.7433 16.25 19.6387 16.25 20.7433V23.8332C16.25 24.1093 16.4738 24.3332 16.75 24.3332H21C22.1045 24.3332 23 23.4378 23 22.3332V16.333H23.3787C24.7151 16.333 25.3843 14.7173 24.4393 13.7724L14.7012 4.03434C14.313 3.64615 13.6844 3.6435 13.2929 4.02842L3.39249 13.7635Z" fill="#CCCCCC"/>
        </g>
    </symbol>

    <!--mobile-catalog-->
    <symbol id="mobile-catalog" viewBox="0 0 29 29"> 
        <g>
           <rect width="28" height="28" transform="translate(0.5 0.333252)" fill="white"/>
            <path fill-rule="evenodd" clip-rule="evenodd" d="M20.2961 17.8333L23.1846 20.7217C23.2211 20.7583 23.2568 20.7955 23.2914 20.8333H27C27.8285 20.8333 28.5 20.1617 28.5 19.3333C28.5 18.5048 27.8285 17.8333 27 17.8333H20.2961ZM20.1278 8.83325C19.7007 7.73683 19.1026 6.72591 18.3662 5.83325H27C27.8285 5.83325 28.5 6.50482 28.5 7.33325C28.5 8.16168 27.8285 8.83325 27 8.83325H20.1278ZM20.8735 12.82C20.8735 12.4874 20.8587 12.1583 20.8298 11.8333H27C27.8285 11.8333 28.5 12.5048 28.5 13.3333C28.5 14.1617 27.8285 14.8333 27 14.8333H20.6891C20.8103 14.1799 20.8735 13.5068 20.8735 12.82Z" fill="#CCCCCC"/>
            <path fill-rule="evenodd" clip-rule="evenodd" d="M4.3999 12.82C4.3999 9.78974 6.85639 7.33325 9.88663 7.33325C12.9169 7.33325 15.3734 9.78974 15.3734 12.82C15.3734 15.8502 12.9169 18.3067 9.88663 18.3067C6.85639 18.3067 4.3999 15.8502 4.3999 12.82ZM0.899902 12.82C0.899902 7.85675 4.9234 3.83325 9.88663 3.83325C14.8499 3.83325 18.8734 7.85675 18.8734 12.82C18.8734 14.1704 18.5755 15.4513 18.0419 16.6004C17.7159 17.3024 17.7875 18.1533 18.3348 18.7006L21.7702 22.136C22.3872 22.753 22.3872 23.7535 21.7702 24.3705C21.1531 24.9876 20.1527 24.9876 19.5356 24.3705L16.2116 21.0465C15.6412 20.4761 14.7457 20.4241 14.0301 20.7966C12.7903 21.4419 11.3811 21.8067 9.88663 21.8067C4.9234 21.8067 0.899902 17.7832 0.899902 12.82Z" fill="#CCCCCC"/>
        </g>
    </symbol>

    <!--mobile-cart-->
    <symbol id="mobile-cart" viewBox="0 0 28 29"> 
        <g>
           <path fill-rule="evenodd" clip-rule="evenodd" d="M10.3248 18.4744C10.4895 18.9686 10.99 19.2688 11.5036 19.1814L24.1601 17.0281C24.596 16.954 24.9396 16.616 25.0209 16.1813L26.5023 8.25891C26.5592 7.95471 26.3289 7.67241 26.0194 7.66708L7.35686 7.34608C6.99275 7.33982 6.7318 7.69539 6.84695 8.04086L10.3248 18.4744Z" fill="#CB11AB"/>
            <path fill-rule="evenodd" clip-rule="evenodd" d="M23.75 25.3333C24.9926 25.3333 26 24.3259 26 23.0833C26 21.8406 24.9926 20.8333 23.75 20.8333C22.5074 20.8333 21.5 21.8406 21.5 23.0833C21.5 24.3259 22.5074 25.3333 23.75 25.3333Z" fill="#CB11AB"/>
            <path fill-rule="evenodd" clip-rule="evenodd" d="M10.75 25.3333C11.9926 25.3333 13 24.3259 13 23.0833C13 21.8406 11.9926 20.8333 10.75 20.8333C9.50736 20.8333 8.5 21.8406 8.5 23.0833C8.5 24.3259 9.50736 25.3333 10.75 25.3333Z" fill="#CB11AB"/>
            <path fill-rule="evenodd" clip-rule="evenodd" d="M2.45442 3.56046C3.1177 3.41833 4.01745 3.33325 5 3.33325C5.98255 3.33325 6.8823 3.41833 7.54558 3.56046C7.87345 3.63072 8.16489 3.71927 8.38495 3.83075C8.4917 3.88484 8.61185 3.959 8.71511 4.06714C8.80017 4.15621 9 4.40237 9 4.83325C9 5.26413 8.80017 5.5103 8.71511 5.59937C8.61185 5.7075 8.4917 5.78167 8.38495 5.83575C8.16489 5.94724 7.87345 6.03579 7.54558 6.10604C6.8823 6.24818 5.98255 6.33325 5 6.33325C4.01745 6.33325 3.1177 6.24818 2.45442 6.10604C2.12655 6.03579 1.83511 5.94724 1.61505 5.83575C1.5083 5.78167 1.38815 5.7075 1.28489 5.59937C1.19983 5.5103 1 5.26413 1 4.83325C1 4.40237 1.19983 4.15621 1.28489 4.06714C1.38815 3.959 1.5083 3.88484 1.61505 3.83075C1.83511 3.71927 2.12655 3.63072 2.45442 3.56046Z" fill="#CB11AB"/>
        </g>
    </symbol>

    <!--mobile-favorites-->
    <symbol id="mobile-favorites" viewBox="0 0 29 29"> 
        <g>
            <path d="M14.9791 23.7496C14.6019 24.0835 14.0344 24.0835 13.6576 23.7491C8.25224 18.9528 3.5 14.2808 3.5 10.3115C3.5 6.94183 6.11818 4.33325 9.50011 4.33325C11.1584 4.33325 12.8167 5.02852 14.007 6.18601C14.2282 6.40108 14.59 6.40108 14.8112 6.18601C16.0015 5.02852 17.6599 4.33325 19.3182 4.33325C22.7 4.33325 25.3182 6.94183 25.3182 10.3115C25.3182 14.2809 20.3979 18.9531 14.9791 23.7496Z" fill="#CCCCCC"/>
        </g>
    </symbol>

    <!--mobile-profile-->
    <symbol id="mobile-profile" viewBox="0 0 28 29"> 
        <g>
            <path fill-rule="evenodd" clip-rule="evenodd" d="M2.80005 22.7061C2.80005 23.7739 3.54488 24.3333 5.62764 24.3333H21.9725C24.0552 24.3333 24.8 23.7739 24.8 22.7061C24.8 19.6044 20.5656 15.3333 13.8069 15.3333C7.03453 15.3333 2.80005 19.6044 2.80005 22.7061Z" fill="#CCCCCC"/>
            <path fill-rule="evenodd" clip-rule="evenodd" d="M18.8 8.26675C18.8 11.1204 16.4913 13.3333 13.8001 13.3333C11.1088 13.3333 8.80006 11.1204 8.80006 8.29093C8.78692 5.4977 11.122 3.33325 13.8001 3.33325C16.4781 3.33325 18.8 5.44933 18.8 8.26675Z" fill="#CCCCCC"/>  
        </g>
    </symbol>


</svg>